<svg width="36" height="36" viewBox="0 0 36 36" fill="none" xmlns="http://www.w3.org/2000/svg">
<path fill-rule="evenodd" clip-rule="evenodd" d="M0.649685 7.4187C0.226092 6.793 0 6.05737 0 5.30485C0 4.29574 0.406151 3.32796 1.1291 2.61441C1.85206 1.90087 2.83259 1.5 3.855 1.5C4.61745 1.5 5.36277 1.72315 5.99672 2.14123C6.63067 2.55931 7.12478 3.15355 7.41656 3.84879C7.70833 4.54404 7.78467 5.30907 7.63593 6.04713C7.48718 6.7852 7.12003 7.46316 6.5809 7.99528C6.04176 8.52739 5.35487 8.88977 4.60707 9.03658C3.85928 9.18339 3.08416 9.10804 2.37976 8.82006C1.67535 8.53208 1.07328 8.04441 0.649685 7.4187ZM14.1449 7.85127H33.4349C34.0832 7.80237 34.6889 7.51366 35.1308 7.04288C35.5728 6.57211 35.8183 5.95401 35.8183 5.31224C35.8183 4.67047 35.5728 4.05237 35.1308 3.5816C34.6889 3.11083 34.0832 2.82211 33.4349 2.77321H14.1449C13.7905 2.74649 13.4344 2.7923 13.0988 2.90778C12.7633 3.02326 12.4555 3.20592 12.1948 3.4443C11.9341 3.68269 11.7262 3.97165 11.5839 4.29309C11.4417 4.61452 11.3683 4.96149 11.3683 5.31224C11.3683 5.66299 11.4417 6.00996 11.5839 6.3314C11.7262 6.65283 11.9341 6.9418 12.1948 7.18018C12.4555 7.41856 12.7633 7.60122 13.0988 7.7167C13.4344 7.83218 13.7905 7.878 14.1449 7.85127ZM0 17.9926C0 18.7451 0.226092 19.4807 0.649685 20.1064C1.07328 20.7322 1.67535 21.2198 2.37976 21.5078C3.08416 21.7958 3.85928 21.8711 4.60707 21.7243C5.35487 21.5775 6.04176 21.2151 6.5809 20.683C7.12003 20.1509 7.48718 19.4729 7.63593 18.7349C7.78467 17.9968 7.70833 17.2318 7.41656 16.5365C7.12478 15.8413 6.63067 15.2471 5.99672 14.829C5.36277 14.4109 4.61745 14.1877 3.855 14.1877C2.83259 14.1877 1.85206 14.5886 1.1291 15.3022C0.406151 16.0157 0 16.9835 0 17.9926ZM14.1449 20.539H33.4349C34.0832 20.4901 34.6889 20.2014 35.1308 19.7306C35.5728 19.2599 35.8183 18.6418 35.8183 18C35.8183 17.3582 35.5728 16.7401 35.1308 16.2693C34.6889 15.7986 34.0832 15.5099 33.4349 15.461H14.1449C13.7905 15.4342 13.4344 15.48 13.0988 15.5955C12.7633 15.711 12.4555 15.8937 12.1948 16.132C11.9341 16.3704 11.7262 16.6594 11.5839 16.9808C11.4417 17.3023 11.3683 17.6492 11.3683 18C11.3683 18.3507 11.4417 18.6977 11.5839 19.0191C11.7262 19.3406 11.9341 19.6295 12.1948 19.8679C12.4555 20.1063 12.7633 20.289 13.0988 20.4044C13.4344 20.5199 13.7905 20.5657 14.1449 20.539ZM0 30.6803C0 31.4329 0.226092 32.1685 0.649685 32.7942C1.07328 33.4199 1.67535 33.9076 2.37976 34.1956C3.08416 34.4835 3.85928 34.5589 4.60707 34.4121C5.35487 34.2653 6.04176 33.9029 6.5809 33.3708C7.12003 32.8386 7.48718 32.1607 7.63593 31.4226C7.78467 30.6846 7.70833 29.9195 7.41656 29.2243C7.12478 28.529 6.63067 27.9348 5.99672 27.5167C5.36277 27.0986 4.61745 26.8755 3.855 26.8755C2.83381 26.8794 1.85557 27.2815 1.13347 27.9942C0.41137 28.7069 0.0039505 29.6724 0 30.6803ZM14.1449 33.2268H33.4349C34.0832 33.1779 34.6889 32.8891 35.1308 32.4184C35.5728 31.9476 35.8183 31.3295 35.8183 30.6877C35.8183 30.046 35.5728 29.4279 35.1308 28.9571C34.6889 28.4863 34.0832 28.1976 33.4349 28.1487H14.1449C13.7905 28.122 13.4344 28.1678 13.0988 28.2833C12.7633 28.3988 12.4555 28.5814 12.1948 28.8198C11.9341 29.0582 11.7262 29.3471 11.5839 29.6686C11.4417 29.99 11.3683 30.337 11.3683 30.6877C11.3683 31.0385 11.4417 31.3854 11.5839 31.7069C11.7262 32.0283 11.9341 32.3173 12.1948 32.5557C12.4555 32.794 12.7633 32.9767 13.0988 33.0922C13.4344 33.2077 13.7905 33.2535 14.1449 33.2268Z" fill="#04829E"/>
</svg>
