<svg width="36" height="36" viewBox="0 0 36 36" fill="none" xmlns="http://www.w3.org/2000/svg">
<path d="M18 1.5C14.7366 1.5 11.5465 2.46771 8.8331 4.28075C6.11969 6.09379 4.00484 8.67074 2.756 11.6857C1.50715 14.7007 1.18039 18.0183 1.81705 21.219C2.45371 24.4197 4.02518 27.3597 6.33275 29.6673C8.64031 31.9748 11.5803 33.5463 14.781 34.183C17.9817 34.8196 21.2993 34.4929 24.3143 33.244C27.3293 31.9952 29.9062 29.8803 31.7193 27.1669C33.5323 24.4535 34.5 21.2634 34.5 18C34.5 13.6239 32.7616 9.42709 29.6673 6.33274C26.5729 3.23839 22.3761 1.5 18 1.5V1.5ZM27.0613 13.9712L16.2813 24.7512C16.102 24.9342 15.8881 25.0795 15.652 25.1787C15.4159 25.2779 15.1624 25.329 14.9063 25.329C14.6502 25.329 14.3966 25.2779 14.1605 25.1787C13.9244 25.0795 13.7105 24.9342 13.5313 24.7512L8.93876 20.1312C8.57408 19.7666 8.36921 19.272 8.36921 18.7562C8.36921 18.2405 8.57408 17.7459 8.93876 17.3812C9.30343 17.0166 9.79803 16.8117 10.3138 16.8117C10.8295 16.8117 11.3241 17.0166 11.6888 17.3812L14.9475 20.64L24.3663 11.2212C24.5468 11.0407 24.7612 10.8974 24.9971 10.7997C25.233 10.702 25.4859 10.6517 25.7413 10.6517C25.9966 10.6517 26.2495 10.702 26.4854 10.7997C26.7213 10.8974 26.9357 11.0407 27.1163 11.2212C27.2968 11.4018 27.4401 11.6162 27.5378 11.8521C27.6355 12.088 27.6858 12.3409 27.6858 12.5962C27.6858 12.8516 27.6355 13.1045 27.5378 13.3404C27.4401 13.5763 27.2968 13.7907 27.1163 13.9712H27.0613Z" fill="#04829E"/>
</svg>
