<svg width="400" height="150" viewBox="0 0 400 150" fill="none" xmlns="http://www.w3.org/2000/svg">
<path fill-rule="evenodd" clip-rule="evenodd" d="M78.1385 100.747H67.5901L63.7038 90.516H39.4346L35.5484 100.747H25L45.7795 47.8466H57.3589L78.1385 100.747ZM61.0866 82.3469L51.5692 57.126L42.0519 82.3469H61.0866ZM117.239 100.747L103.121 81.078L116.366 62.4398H107.008L97.8869 75.3676L88.8455 62.4398H79.4867L92.7317 81.078L78.6143 100.747H87.973L97.9662 86.6297L107.88 100.747H117.239ZM127.232 57.7605C130.087 57.7605 132.387 55.4604 132.387 52.6052C132.387 49.75 130.087 47.45 127.232 47.45C124.377 47.45 122.077 49.75 122.077 52.6052C122.077 55.4604 124.377 57.7605 127.232 57.7605ZM131.356 100.747V62.4398H123.029V100.747H131.356ZM155.308 101.699C165.619 101.699 171.25 96.5436 171.25 89.7229C171.25 74.4951 148.091 79.571 148.091 72.8296C148.091 70.133 150.787 68.0709 155.15 68.0709C159.988 68.0709 164.191 70.133 166.491 72.671L169.981 66.8019C166.57 63.7881 161.653 61.4881 155.15 61.4881C145.474 61.4881 140.08 66.8019 140.08 73.0675C140.08 87.8194 163.239 82.4263 163.239 89.9608C163.239 92.9746 160.622 95.0367 155.625 95.0367C150.708 95.0367 145.394 92.4988 142.698 89.7229L138.891 95.6712C142.856 99.5575 148.725 101.699 155.308 101.699ZM227.005 100.747H200.278V47.8466H226.292C236.047 47.8466 241.361 53.8742 241.361 61.3295C241.361 67.9123 237.078 72.433 232.161 73.4641C237.871 74.3365 242.392 79.9676 242.392 86.3918C242.392 94.6402 236.999 100.747 227.005 100.747ZM224.467 69.6572C229.147 69.6572 231.843 66.8813 231.843 62.8364C231.843 58.9501 229.147 56.0156 224.467 56.0156H209.557V69.6572H224.467ZM224.864 92.5781C229.861 92.5781 232.874 89.8022 232.874 85.2021C232.874 81.2366 230.099 77.8262 224.864 77.8262H209.557V92.5781H224.864ZM283.316 100.747H274.989V96.5436C272.133 99.8747 267.613 101.699 262.537 101.699C256.351 101.699 249.292 97.4161 249.292 89.0091C249.292 80.1262 256.271 76.4779 262.537 76.4779C267.771 76.4779 272.133 78.1434 274.989 81.3952V75.6848C274.989 71.2434 271.261 68.5468 266.027 68.5468C261.744 68.5468 257.937 70.133 254.685 73.4641L251.195 67.6744C255.637 63.3916 261.189 61.4881 267.295 61.4881C275.861 61.4881 283.316 65.0571 283.316 75.2882V100.747ZM265.868 95.9885C269.437 95.9885 273.006 94.6402 274.989 92.0229V86.1539C273.006 83.5366 269.437 82.1883 265.868 82.1883C261.189 82.1883 257.62 84.9642 257.62 89.0884C257.62 93.2919 261.189 95.9885 265.868 95.9885ZM328.365 100.747V73.7813C328.365 65.9295 324.241 61.4881 315.993 61.4881C309.965 61.4881 304.968 64.5812 302.43 67.5951V62.4398H294.103V100.747H302.43V73.94C304.413 71.402 308.061 68.864 312.265 68.864C316.944 68.864 320.037 70.7675 320.037 76.7952V100.747H328.365ZM375 100.747L358.821 79.809L374.683 62.4398H364.372L347.479 80.9193V47.8466H339.151V100.747H347.479V90.4367L352.872 84.8849L364.531 100.747H375Z" fill="#002780"/>
</svg>
