<svg width="400" height="150" viewBox="0 0 400 150" fill="none" xmlns="http://www.w3.org/2000/svg">
<path fill-rule="evenodd" clip-rule="evenodd" d="M80.1054 116.69H39.8618V115.685L69.4207 114.519C75.0952 114.179 80.6077 114.02 85.9582 112.182C96.6397 108.51 105.328 101.16 107.833 91.9697C110.669 82.2928 104.327 72.5998 92.4656 71.9354C102.486 68.9313 111.003 62.5794 113.342 54.403C116.35 43.8868 111.003 38.5396 101.984 36.5368C116.852 36.365 128.71 41.3752 124.701 55.7414C122.361 63.759 113.68 70.1012 103.659 72.778C115.352 73.6076 121.859 84.7979 118.683 94.478C115.511 104.498 107.334 110.675 96.4744 114.354C91.1272 116.188 85.7832 116.522 80.1054 116.69Z" fill="#F26522"/>
<path fill-rule="evenodd" clip-rule="evenodd" d="M59.0632 111.68L40.0271 112.519C40.0271 112.017 40.0271 111.845 39.8618 111.353L87.9545 97.4854V96.8178L39.3563 108.517C39.1942 108.005 39.0257 107.846 38.8572 107.512L89.9572 79.1201L89.6234 78.2905L37.3567 105.001C37.0197 104.495 37.1882 104.495 36.8609 104.171L97.4758 46.8877L96.9767 46.2201L34.5211 102.165C34.1873 102 34.0155 101.831 33.685 101.666L78.1026 36.8706L77.273 36.6988L31.0113 100.496L30.347 100.162L55.7285 37.5349H55.0577L26.3382 99.6567H24.9998L43.5368 33.0238L77.9341 33.1956C94.3031 32.1974 107.159 36.6988 102.823 51.9011C100.652 60.084 92.1285 66.4261 82.1146 69.0965V69.2748C93.9693 70.1044 100.486 79.6192 97.8063 89.4743C95.3077 98.4933 86.2822 105.672 75.4322 109.347C70.085 111.012 64.579 111.349 59.0632 111.68Z" fill="#F26522"/>
<path fill-rule="evenodd" clip-rule="evenodd" d="M157.42 103.5H160.926C163.931 103.5 164.601 105.004 164.102 107.678C163.266 111.683 160.259 111.683 158.927 111.683H155.586M159.925 91.6424H163.597C165.6 91.6424 166.766 93.1396 166.27 95.3109C165.768 98.1563 163.762 98.9924 162.43 98.9924H158.253L159.925 91.6424ZM159.257 116.188C161.928 116.188 168.438 115.86 169.949 108.514C170.778 104.495 170.279 101.828 166.105 101.164C169.443 100.496 171.614 97.9878 172.45 94.6498C173.62 88.4632 170.114 87.1313 165.603 87.1313H154.749L148.566 116.188H159.257Z" fill="#F26522"/>
<path fill-rule="evenodd" clip-rule="evenodd" d="M182.97 106.336C182.471 108.672 182.137 113.184 178.799 113.184C176.958 113.184 177.127 111.349 177.295 109.846C178.128 106.336 180.134 106.504 182.97 106.336ZM189.484 102.327C190.151 98.6489 189.986 95.4794 182.801 95.4794C180.633 95.4794 178.63 95.8197 177.127 96.8146C175.623 97.8192 174.622 99.3197 173.957 101.831H179.635C179.969 100.159 180.465 98.6521 182.305 98.6521C184.477 98.6521 184.477 99.9938 183.974 101.663L183.647 103.173C178.468 103.173 173.29 103.5 171.786 110.176C170.953 113.686 171.786 116.525 175.795 116.525C178.297 116.525 180.137 115.53 181.803 113.527L181.473 116.191H186.813C186.979 115.021 186.979 113.689 187.319 112.354L189.484 102.327Z" fill="#F26522"/>
<path fill-rule="evenodd" clip-rule="evenodd" d="M199.504 95.9882H193.823L189.484 116.188H195.161L198.166 102.165C198.503 100.496 199.167 98.9924 201.008 98.9924C202.508 98.9924 202.677 100.496 202.174 102.165L199.332 116.188H204.842L208.351 99.9938C209.019 97.1549 206.851 95.4827 204.174 95.4827C202.171 95.4827 200.667 96.1535 199.164 97.9878H198.998" fill="#F26522"/>
<path fill-rule="evenodd" clip-rule="evenodd" d="M213.196 116.188L215.536 105.173H215.705L218.54 116.188H225.051L221.045 105.004L228.726 95.9882H222.718L215.863 104.495H215.705L219.38 87.1313H213.695L207.518 116.188" fill="#F26522"/>
<path fill-rule="evenodd" clip-rule="evenodd" d="M240.085 113.015C237.907 113.015 237.745 111.677 239.08 105.506C239.919 101.326 240.581 99.1512 242.917 99.1512C245.425 99.1512 245.092 101.326 244.256 105.506C242.917 111.68 242.084 113.015 240.085 113.015ZM239.242 116.522C246.589 116.522 248.433 112.189 249.765 105.834C250.941 100.321 251.272 95.4827 243.753 95.4827C236.241 95.4827 234.4 100.321 233.231 105.834C231.899 112.189 231.899 116.522 239.242 116.522Z" fill="#F26522"/>
<path fill-rule="evenodd" clip-rule="evenodd" d="M264.799 87.128C264.128 86.966 263.632 86.966 262.793 86.966C255.948 86.966 255.783 90.1419 254.61 95.9915H251.939L251.272 99.323H253.78L250.267 116.191H255.951L259.455 99.323H262.131L262.799 95.9915H260.294L260.793 93.4831C261.127 91.4804 261.794 90.4757 264.131 90.6378" fill="#F26522"/>
<path fill-rule="evenodd" clip-rule="evenodd" d="M275.824 103.5H279.327C282.328 103.5 283.002 105.004 282.5 107.678C281.498 111.683 278.656 111.683 277.321 111.683H273.98M278.326 91.6424H281.997C284.003 91.6424 285.17 93.1396 284.668 95.3109C284.172 98.1563 282.159 98.9924 280.831 98.9924H276.657L278.326 91.6424ZM277.655 116.188C280.328 116.188 286.674 115.86 288.343 108.514C289.179 104.495 288.673 101.828 284.502 101.164C287.844 100.496 290.018 97.9878 290.686 94.6498C292.018 88.4632 288.511 87.1313 284.003 87.1313H273.15L266.97 116.188H277.655Z" fill="#F26522"/>
<path fill-rule="evenodd" clip-rule="evenodd" d="M301.37 106.336C300.868 108.672 300.528 113.184 297.19 113.184C295.359 113.184 295.527 111.349 295.693 109.846C296.526 106.336 298.528 106.504 301.37 106.336ZM307.881 102.327C308.549 98.6489 308.38 95.4794 301.199 95.4794C299.031 95.4794 297.028 95.8197 295.527 96.8146C294.024 97.8192 293.019 99.3197 292.351 101.831H298.036C298.366 100.159 298.7 98.6521 300.706 98.6521C302.881 98.6521 302.712 99.9938 302.378 101.663L302.041 103.173C296.863 103.173 291.519 103.5 290.183 110.176C289.354 113.686 290.183 116.525 294.195 116.525C296.697 116.525 298.535 115.53 300.204 113.527L299.87 116.191H305.211C305.211 115.021 305.379 113.689 305.707 112.354L307.881 102.327Z" fill="#F26522"/>
<path fill-rule="evenodd" clip-rule="evenodd" d="M312.224 95.9882L307.884 116.188H313.559L315.899 105.172C316.232 103.173 317.065 100.324 321.913 100.496L322.915 95.4827C320.744 95.4827 318.572 96.1535 317.069 98.4933L317.574 95.9915" fill="#F26522"/>
<path fill-rule="evenodd" clip-rule="evenodd" d="M328.087 113.015C325.916 113.015 325.751 111.677 326.917 105.506C327.919 101.326 328.589 99.1512 330.929 99.1512C333.428 99.1512 333.097 101.326 332.268 105.506C330.929 111.68 330.087 113.015 328.087 113.015ZM327.251 116.522C334.601 116.522 336.442 112.189 337.77 105.834C338.94 100.321 339.109 95.4827 331.762 95.4827C324.244 95.4827 322.409 100.321 321.239 105.834C319.904 112.189 319.904 116.522 327.251 116.522Z" fill="#F26522"/>
<path fill-rule="evenodd" clip-rule="evenodd" d="M346.119 113.184C344.122 113.184 344.122 111.012 345.286 105.834C346.119 101.828 346.624 98.9924 349.129 98.9924C351.466 98.9924 350.798 101.831 349.959 105.834C348.792 111.012 348.128 113.184 346.119 113.184ZM353.469 116.188L359.646 87.1313H353.971L351.634 97.8225C350.798 96.1535 349.463 95.4827 347.457 95.4827C341.786 95.4827 340.613 101.831 339.78 105.834C338.772 110.014 337.271 116.522 343.118 116.522C345.286 116.522 346.958 115.86 348.462 114.02L348.131 116.188H353.469Z" fill="#F26522"/>
<path fill-rule="evenodd" clip-rule="evenodd" d="M368.165 106.336C367.835 108.672 367.333 113.184 363.995 113.184C362.157 113.184 362.322 111.349 362.656 109.846C363.32 106.336 365.326 106.504 368.165 106.336ZM374.679 102.327C375.512 98.6489 375.178 95.4794 367.997 95.4794C365.822 95.4794 363.823 95.8197 362.319 96.8146C360.815 97.8192 359.811 99.3197 359.315 101.831H364.824C365.155 100.159 365.654 98.6521 367.663 98.6521C369.663 98.6521 369.663 99.9938 369.16 101.663L368.83 103.173C363.651 103.173 358.472 103.5 356.975 110.176C356.301 113.686 357.137 116.525 360.981 116.525C363.489 116.525 365.323 115.53 366.989 113.527L366.658 116.191H371.996C372.168 115.021 372.168 113.689 372.498 112.354L374.679 102.327Z" fill="#F26522"/>
<path fill-rule="evenodd" clip-rule="evenodd" d="M80.1054 116.69H39.8618V115.685L69.4207 114.519C75.0952 114.179 80.6077 114.02 85.9582 112.182C96.6397 108.51 105.328 101.16 107.833 91.9697C110.669 82.2928 104.327 72.5998 92.4656 71.9354C102.486 68.9313 111.003 62.5794 113.342 54.403C116.35 43.8868 111.003 38.5396 101.984 36.5368C116.852 36.365 128.71 41.3752 124.701 55.7414C122.361 63.759 113.68 70.1012 103.659 72.778C115.352 73.6076 121.859 84.7979 118.683 94.478C115.511 104.498 107.334 110.675 96.4744 114.354C91.1272 116.188 85.7832 116.522 80.1054 116.69Z" fill="#F26522"/>
<path fill-rule="evenodd" clip-rule="evenodd" d="M59.0632 111.68L40.0271 112.519C40.0271 112.017 40.0271 111.845 39.8618 111.353L87.9545 97.4854V96.8178L39.3563 108.517C39.1942 108.005 39.0257 107.846 38.8572 107.512L89.9572 79.1201L89.6234 78.2905L37.3567 105.001C37.0197 104.495 37.1882 104.495 36.8609 104.171L97.4758 46.8877L96.9767 46.2201L34.5211 102.165C34.1873 102 34.0155 101.831 33.685 101.666L78.1026 36.8706L77.273 36.6988L31.0113 100.496L30.347 100.162L55.7285 37.5349H55.0577L26.3382 99.6567H24.9998L43.5368 33.0238L77.9341 33.1956C94.3031 32.1974 107.159 36.6988 102.823 51.9011C100.652 60.084 92.1285 66.4261 82.1146 69.0965V69.2748C93.9693 70.1044 100.486 79.6192 97.8063 89.4743C95.3077 98.4933 86.2822 105.672 75.4322 109.347C70.085 111.012 64.579 111.349 59.0632 111.68Z" fill="#F26522"/>
<path fill-rule="evenodd" clip-rule="evenodd" d="M157.42 103.5H160.926C163.931 103.5 164.601 105.004 164.102 107.678C163.266 111.683 160.259 111.683 158.927 111.683H155.586M159.925 91.6424H163.597C165.6 91.6424 166.766 93.1396 166.27 95.3109C165.768 98.1563 163.762 98.9924 162.43 98.9924H158.253L159.925 91.6424ZM159.257 116.188C161.928 116.188 168.438 115.86 169.949 108.514C170.778 104.495 170.279 101.828 166.105 101.164C169.443 100.496 171.614 97.9878 172.45 94.6498C173.62 88.4632 170.114 87.1313 165.603 87.1313H154.749L148.566 116.188H159.257Z" fill="#F26522"/>
<path fill-rule="evenodd" clip-rule="evenodd" d="M182.97 106.336C182.471 108.672 182.137 113.184 178.799 113.184C176.958 113.184 177.127 111.349 177.295 109.846C178.128 106.336 180.134 106.504 182.97 106.336ZM189.484 102.327C190.151 98.6489 189.986 95.4794 182.801 95.4794C180.633 95.4794 178.63 95.8197 177.127 96.8146C175.623 97.8192 174.622 99.3197 173.957 101.831H179.635C179.969 100.159 180.465 98.6521 182.305 98.6521C184.477 98.6521 184.477 99.9938 183.974 101.663L183.647 103.173C178.468 103.173 173.29 103.5 171.786 110.176C170.953 113.686 171.786 116.525 175.795 116.525C178.297 116.525 180.137 115.53 181.803 113.527L181.473 116.191H186.813C186.979 115.021 186.979 113.689 187.319 112.354L189.484 102.327Z" fill="#F26522"/>
<path fill-rule="evenodd" clip-rule="evenodd" d="M199.504 95.9882H193.823L189.484 116.188H195.161L198.166 102.165C198.503 100.496 199.167 98.9924 201.008 98.9924C202.508 98.9924 202.677 100.496 202.174 102.165L199.332 116.188H204.842L208.351 99.9938C209.019 97.1549 206.851 95.4827 204.174 95.4827C202.171 95.4827 200.667 96.1535 199.164 97.9878H198.998" fill="#F26522"/>
<path fill-rule="evenodd" clip-rule="evenodd" d="M213.196 116.188L215.536 105.173H215.705L218.54 116.188H225.051L221.045 105.004L228.726 95.9882H222.718L215.863 104.495H215.705L219.38 87.1313H213.695L207.518 116.188" fill="#F26522"/>
<path fill-rule="evenodd" clip-rule="evenodd" d="M240.085 113.015C237.907 113.015 237.745 111.677 239.08 105.506C239.919 101.326 240.581 99.1512 242.917 99.1512C245.425 99.1512 245.092 101.326 244.256 105.506C242.917 111.68 242.084 113.015 240.085 113.015ZM239.242 116.522C246.589 116.522 248.433 112.189 249.765 105.834C250.941 100.321 251.272 95.4827 243.753 95.4827C236.241 95.4827 234.4 100.321 233.231 105.834C231.899 112.189 231.899 116.522 239.242 116.522Z" fill="#F26522"/>
<path fill-rule="evenodd" clip-rule="evenodd" d="M264.799 87.128C264.128 86.966 263.632 86.966 262.793 86.966C255.948 86.966 255.783 90.1419 254.61 95.9915H251.939L251.272 99.323H253.78L250.267 116.191H255.951L259.455 99.323H262.131L262.799 95.9915H260.294L260.793 93.4831C261.127 91.4804 261.794 90.4757 264.131 90.6378" fill="#F26522"/>
<path fill-rule="evenodd" clip-rule="evenodd" d="M275.824 103.5H279.327C282.328 103.5 283.002 105.004 282.5 107.678C281.498 111.683 278.656 111.683 277.321 111.683H273.98M278.326 91.6424H281.997C284.003 91.6424 285.17 93.1396 284.668 95.3109C284.172 98.1563 282.159 98.9924 280.831 98.9924H276.657L278.326 91.6424ZM277.655 116.188C280.328 116.188 286.674 115.86 288.343 108.514C289.179 104.495 288.673 101.828 284.502 101.164C287.844 100.496 290.018 97.9878 290.686 94.6498C292.018 88.4632 288.511 87.1313 284.003 87.1313H273.15L266.97 116.188H277.655Z" fill="#F26522"/>
<path fill-rule="evenodd" clip-rule="evenodd" d="M301.37 106.336C300.868 108.672 300.528 113.184 297.19 113.184C295.359 113.184 295.527 111.349 295.693 109.846C296.526 106.336 298.528 106.504 301.37 106.336ZM307.881 102.327C308.549 98.6489 308.38 95.4794 301.199 95.4794C299.031 95.4794 297.028 95.8197 295.527 96.8146C294.024 97.8192 293.019 99.3197 292.351 101.831H298.036C298.366 100.159 298.7 98.6521 300.706 98.6521C302.881 98.6521 302.712 99.9938 302.378 101.663L302.041 103.173C296.863 103.173 291.519 103.5 290.183 110.176C289.354 113.686 290.183 116.525 294.195 116.525C296.697 116.525 298.535 115.53 300.204 113.527L299.87 116.191H305.211C305.211 115.021 305.379 113.689 305.707 112.354L307.881 102.327Z" fill="#F26522"/>
<path fill-rule="evenodd" clip-rule="evenodd" d="M312.224 95.9882L307.884 116.188H313.559L315.899 105.172C316.232 103.173 317.065 100.324 321.913 100.496L322.915 95.4827C320.744 95.4827 318.572 96.1535 317.069 98.4933L317.574 95.9915" fill="#F26522"/>
<path fill-rule="evenodd" clip-rule="evenodd" d="M328.087 113.015C325.916 113.015 325.751 111.677 326.917 105.506C327.919 101.326 328.589 99.1512 330.929 99.1512C333.428 99.1512 333.097 101.326 332.268 105.506C330.929 111.68 330.087 113.015 328.087 113.015ZM327.251 116.522C334.601 116.522 336.442 112.189 337.77 105.834C338.94 100.321 339.109 95.4827 331.762 95.4827C324.244 95.4827 322.409 100.321 321.239 105.834C319.904 112.189 319.904 116.522 327.251 116.522Z" fill="#F26522"/>
<path fill-rule="evenodd" clip-rule="evenodd" d="M346.119 113.184C344.122 113.184 344.122 111.012 345.286 105.834C346.119 101.828 346.624 98.9924 349.129 98.9924C351.466 98.9924 350.798 101.831 349.959 105.834C348.792 111.012 348.128 113.184 346.119 113.184ZM353.469 116.188L359.646 87.1313H353.971L351.634 97.8225C350.798 96.1535 349.463 95.4827 347.457 95.4827C341.786 95.4827 340.613 101.831 339.78 105.834C338.772 110.014 337.271 116.522 343.118 116.522C345.286 116.522 346.958 115.86 348.462 114.02L348.131 116.188H353.469Z" fill="#F26522"/>
<path fill-rule="evenodd" clip-rule="evenodd" d="M368.165 106.336C367.835 108.672 367.333 113.184 363.995 113.184C362.157 113.184 362.322 111.349 362.656 109.846C363.32 106.336 365.326 106.504 368.165 106.336ZM374.679 102.327C375.512 98.6489 375.178 95.4794 367.997 95.4794C365.822 95.4794 363.823 95.8197 362.319 96.8146C360.815 97.8192 359.811 99.3197 359.315 101.831H364.824C365.155 100.159 365.654 98.6521 367.663 98.6521C369.663 98.6521 369.663 99.9938 369.16 101.663L368.83 103.173C363.651 103.173 358.472 103.5 356.975 110.176C356.301 113.686 357.137 116.525 360.981 116.525C363.489 116.525 365.323 115.53 366.989 113.527L366.658 116.191H371.996C372.168 115.021 372.168 113.689 372.498 112.354L374.679 102.327Z" fill="#F26522"/>
<path fill-rule="evenodd" clip-rule="evenodd" d="M151.648 48.7252H199.076L198.24 51.2303H150.984" fill="#F26522"/>
<path fill-rule="evenodd" clip-rule="evenodd" d="M291.755 67.9266C289.25 67.9266 289.25 66.2577 290.255 62.2521C291.091 59.0794 291.755 56.7493 294.594 56.9081C297.598 56.9081 296.937 59.0794 296.098 62.2521C295.093 66.4229 294.26 67.9266 291.755 67.9266ZM298.606 73.6044L304.449 50.7345H298.94L297.77 55.9035H297.602C296.94 54.5618 294.766 54.0692 292.757 54.0692C287.251 54.0692 285.578 58.7456 284.745 62.0836C283.913 65.4215 283.073 70.7688 288.583 70.7688C290.754 70.7688 293.262 70.2697 294.597 68.7595H294.766L293.427 73.6044H298.606Z" fill="#F26522"/>
<path fill-rule="evenodd" clip-rule="evenodd" d="M287.251 48.7252H367.239L366.402 51.2303H286.414" fill="#F26522"/>
<path fill-rule="evenodd" clip-rule="evenodd" d="M290.42 56.9048L296.266 64.4234L295.43 67.097L289.253 59.0761" fill="#F26522"/>
<path fill-rule="evenodd" clip-rule="evenodd" d="M156.49 67.9266C153.981 67.9266 153.819 66.2577 154.992 62.2521C155.825 59.0794 156.49 56.7493 159.332 56.9081C162.171 56.9081 161.5 59.0794 160.667 62.2521C159.666 66.4229 158.829 67.9266 156.49 67.9266ZM163.169 73.6044L169.015 50.7345H163.674L162.336 55.9035C161.5 54.5618 159.332 54.0692 157.326 54.0692C151.982 54.0692 150.478 58.4118 149.642 61.7498C148.809 65.0877 147.642 70.7688 153.152 70.7688C155.323 70.7688 157.828 70.2697 159.332 68.7595L157.993 73.6044H163.169Z" fill="#F26522"/>
<path fill-rule="evenodd" clip-rule="evenodd" d="M176.362 68.1049C174.359 68.1049 174.528 66.4229 175.532 62.2521C176.362 59.0794 176.871 56.9081 179.204 56.9081C181.544 56.9081 180.88 59.0794 180.043 62.2521C179.039 66.4229 178.203 68.1049 176.362 68.1049ZM182.377 73.6044L188.226 50.5595L182.879 50.7378L181.712 55.9067H181.544C180.88 54.5651 179.544 54.0725 177.707 54.0725C172.194 54.0725 170.859 58.5803 170.023 61.9216C169.19 65.2595 167.855 70.772 173.53 70.772C175.536 70.772 177.205 70.273 178.536 68.7628H178.705L177.367 73.6077H182.377V73.6044Z" fill="#F26522"/>
<path fill-rule="evenodd" clip-rule="evenodd" d="M187.718 70.7655C186.719 70.7655 185.718 70.6035 185.216 70.0979L185.553 68.5877L186.049 68.7595C188.385 68.7595 189.056 65.9238 189.892 62.7479C190.89 58.7423 191.059 56.9048 189.059 56.9048C187.215 56.9048 186.217 58.5738 185.216 62.5794C185.047 63.0785 184.879 63.4252 184.879 63.9178L184.71 64.2548L183.378 69.4271L182.374 73.6011H177.36L183.378 51.3923L187.718 51.0553L186.719 56.4058C188.055 54.8988 189.892 54.2409 191.895 54.2409C197.404 54.2409 196.234 59.5817 195.405 62.7511C194.565 66.0891 193.23 70.7655 187.718 70.7655Z" fill="#F26522"/>
<path fill-rule="evenodd" clip-rule="evenodd" d="M212.772 73.6044H205.091L205.755 71.0961H212.441C214.107 71.0961 216.615 70.1012 217.451 66.7632C218.119 64.5919 217.114 62.0836 214.107 62.0836H209.106L209.767 59.4132H215.611C217.62 59.4132 219.12 57.5789 219.788 55.2391C220.284 53.5669 220.125 51.0585 217.114 51.0585H210.769L211.44 48.5632H218.952C222.789 48.5632 226.963 50.2289 225.799 54.7368C224.967 58.2465 223.291 59.922 219.282 60.5798C223.46 61.0886 224.296 63.9211 223.46 67.2687C221.784 73.2738 215.273 73.6044 212.772 73.6044Z" fill="#F26522"/>
<path fill-rule="evenodd" clip-rule="evenodd" d="M231.143 50.7345L225.294 73.6044H230.473L236.316 50.7345" fill="#F26522"/>
<path fill-rule="evenodd" clip-rule="evenodd" d="M253.349 73.6044H259.03C259.195 72.5998 260.702 66.2577 261.033 65.0878L264.873 50.2257H259.364L256.019 62.7512C255.689 64.2549 255.018 65.9271 253.349 65.9271C251.512 65.9271 251.512 64.7637 251.849 63.4253L255.355 50.2289H249.843L246.002 65.091C245.506 67.4308 247.341 68.5942 250.008 68.5942C252.017 68.5942 253.683 68.1049 255.018 66.7632H255.183" fill="#F26522"/>
<path fill-rule="evenodd" clip-rule="evenodd" d="M263.37 55.0641L258.69 55.4044L254.519 71.4298H259.364L261.872 61.2442C262.2 59.7405 263.201 57.7377 264.873 57.7377C266.711 57.7377 266.711 58.9076 266.377 60.4113L263.538 71.4298H268.879L272.22 58.5706C272.719 56.234 270.882 55.0609 268.214 55.0609C266.212 55.0609 264.539 55.7349 263.039 57.0669H262.867" fill="#F26522"/>
<path fill-rule="evenodd" clip-rule="evenodd" d="M224.795 59.2479H232.809L232.145 61.7498H224.121" fill="#F26522"/>
<path fill-rule="evenodd" clip-rule="evenodd" d="M155.323 56.9048L161.169 64.4234L160.333 67.097L154.156 59.0761" fill="#F26522"/>
<path fill-rule="evenodd" clip-rule="evenodd" d="M240.321 50.7345L234.478 73.6044H239.654L245.503 50.7345" fill="#F26522"/>
<path fill-rule="evenodd" clip-rule="evenodd" d="M346.031 71.9387C344.531 73.6044 341.355 73.9447 339.187 73.9447C332.501 73.9447 333.674 67.4308 334.844 62.9197C336.011 58.4118 338.017 54.565 343.358 54.565H347.535L348.702 50.7377H354.046L352.211 56.9113H345.027C342.693 56.9113 342.019 59.747 341.018 63.7623C339.851 68.766 339.018 71.7766 342.184 71.7766C342.693 71.7766 343.695 71.4396 344.693 70.9373" fill="#F26522"/>
<path fill-rule="evenodd" clip-rule="evenodd" d="M358.557 50.7345L352.714 73.6044H357.72L363.732 50.7345" fill="#F26522"/>
<path fill-rule="evenodd" clip-rule="evenodd" d="M161.001 49.5613L155.825 43.2159L159.662 40.3803L164.676 49.2275H166.014L162.005 38.5395L166.51 36.5367L169.349 49.2275" fill="#F26522"/>
<path fill-rule="evenodd" clip-rule="evenodd" d="M170.856 42.7136H175.698L174.696 46.8877H169.848" fill="#F26522"/>
<path fill-rule="evenodd" clip-rule="evenodd" d="M245.166 72.0975H250.005L248.841 76.1095H244" fill="#F26522"/>
<path fill-rule="evenodd" clip-rule="evenodd" d="M324.49 49.5613L319.314 43.2159L322.983 40.3803L328.162 49.2275H329.497L325.491 38.5395L329.996 36.5367L332.838 49.2275" fill="#F26522"/>
<path fill-rule="evenodd" clip-rule="evenodd" d="M317.046 76.1095H322.046L320.883 80.1183H316.038" fill="#F26522"/>
<path fill-rule="evenodd" clip-rule="evenodd" d="M343.189 71.2679C342.858 68.4322 344.696 64.9225 348.202 64.9225C351.544 64.9225 351.544 66.7632 351.21 68.2605C350.539 70.6003 349.376 71.7702 347.201 72.4378C348.202 74.6026 351.048 74.7743 351.048 74.7743L345.529 77.7818C343.698 75.6105 342.858 73.9447 343.189 71.2679Z" fill="#F26522"/>
<path fill-rule="evenodd" clip-rule="evenodd" d="M328.998 50.7345L323.155 73.6044H328.327L334.18 50.7345" fill="#F26522"/>
<path fill-rule="evenodd" clip-rule="evenodd" d="M318.475 55.7414C317.976 54.565 316.472 54.2409 313.3 54.2409C308.124 54.2409 307.123 54.9053 305.95 59.4164C305.285 61.9215 304.786 64.9257 308.289 64.9257H312.464C315.639 64.9257 315.471 65.9303 314.8 68.1081C313.97 70.9372 313.303 71.4363 311.128 71.4363C307.79 71.4363 308.96 69.4335 309.459 67.4308H303.616C302.281 71.2678 302.608 73.6076 307.787 73.6076H313.799C316.978 73.6076 319.314 73.4456 320.65 68.2636C321.816 63.7622 321.149 62.7544 318.141 62.7544H314.132C311.631 62.7544 310.966 62.2553 311.631 59.7469C312.464 56.9081 312.969 56.7493 314.972 56.7493C317.146 56.7493 317.976 57.4104 317.474 59.0826H322.652L324.992 50.3942H319.645" fill="#F26522"/>
<path fill-rule="evenodd" clip-rule="evenodd" d="M228.635 48.7252H274.722L273.892 51.2303H227.796" fill="#F26522"/>
<path fill-rule="evenodd" clip-rule="evenodd" d="M248.005 40.8729V41.2035C246.835 45.7178 244.502 46.0581 241.828 46.0581H236.319C231.808 46.0581 231.477 44.0456 232.313 40.8729H237.654C237.155 42.5484 236.487 44.0456 239.326 44.0456C241.329 44.0456 241.828 43.5498 242.664 41.0447V40.8729" fill="#F26522"/>
</svg>
