<svg width="36" height="36" viewBox="0 0 36 36" fill="none" xmlns="http://www.w3.org/2000/svg">
<g clip-path="url(#clip0_2514_379)">
<mask id="mask0_2514_379" style="mask-type:luminance" maskUnits="userSpaceOnUse" x="-8" y="-8" width="52" height="52">
<path d="M-7.2002 -7.1998H43.1998V43.2002H-7.2002V-7.1998Z" fill="white"/>
</mask>
<g mask="url(#mask0_2514_379)">
<path d="M36 18C36 8.05888 27.9411 -2.85049e-06 18 -2.85049e-06C8.05889 -2.85049e-06 0 8.05888 0 18C0 26.4416 5.81148 33.5248 13.6516 35.4699V23.5005H9.93989V18H13.6516V15.6298C13.6516 9.5032 16.4242 6.66353 22.4391 6.66353C23.5794 6.66353 25.5471 6.88709 26.3521 7.11072V12.097C25.9272 12.0523 25.1893 12.0299 24.2726 12.0299C21.3211 12.0299 20.1807 13.1479 20.1807 16.0547V18H26.0601L25.0501 23.5005H20.1807V35.8682C29.0933 34.7917 36 27.2029 36 18Z" fill="white"/>
</g>
</g>
<defs>
<clipPath id="clip0_2514_379">
<rect width="36" height="36" fill="white"/>
</clipPath>
</defs>
</svg>
