<svg width="72" height="72" viewBox="0 0 72 72" fill="none" xmlns="http://www.w3.org/2000/svg"><path fill-rule="evenodd" clip-rule="evenodd" d="M59.9989 19.8023C59.8951 11.0572 52.7737 4 44.004 4C35.2749 4 28.1788 10.9921 28.0111 19.6812L28.01 19.802L28 19.8027V30H25C21.6863 30 19 32.6863 19 36V60C19 63.3137 21.6863 66 25 66H63C66.3137 66 69 63.3137 69 60V36C69 32.6863 66.3137 30 63 30H60V19.8027L59.9989 19.8023ZM53.0011 30L53 19.8027L52.997 19.802L52.9962 19.7346C52.8583 14.975 49.025 11.1417 44.2654 11.0038L44 11C39.1831 11 35.25 14.7842 35.0094 19.5423L35 19.8027L34.9989 30H53.0011Z" fill="#4F5F9E"/><path fill-rule="evenodd" clip-rule="evenodd" d="M59.9989 19.8023C59.8951 11.0572 52.7737 4 44.004 4L44 11L44.2654 11.0038C49.025 11.1417 52.8583 14.975 52.9962 19.7346L53 19.8027L53.0011 30H44V66H63C66.3137 66 69 63.3137 69 60V36C69 32.6863 66.3137 30 63 30H59.9996L59.9989 19.8023Z" fill="#3F4E8B"/><path fill-rule="evenodd" clip-rule="evenodd" d="M50 46C50 48.2629 48.7473 50.2332 46.8975 51.2553V54.1621H46.8937C46.8962 54.2125 46.8975 54.2632 46.8975 54.3142C46.8975 55.971 45.5544 57.3142 43.8975 57.3142C42.2406 57.3142 40.8975 55.971 40.8975 54.3142C40.8975 54.2632 40.8988 54.2125 40.9013 54.1621H40.8975V51.1366C39.1608 50.0854 38 48.1783 38 46C38 42.6863 40.6863 40 44 40C47.3137 40 50 42.6863 50 46Z" fill="#F3F4F7"/><path fill-rule="evenodd" clip-rule="evenodd" d="M13.2893 51.9306L26.3289 38.8909C26.464 38.7559 26.6468 38.6799 26.8382 38.6799H32.5998C32.9979 38.6799 33.32 39.0024 33.32 39.4001V45.1618C33.32 45.3528 33.2441 45.536 33.109 45.671L30.9484 47.8317C30.8134 47.9667 30.6305 48.0427 30.4392 48.0427H26.8382V51.6438C26.8382 52.0415 26.516 52.364 26.1179 52.364H22.5168V55.965C22.5168 56.156 22.4409 56.3392 22.3059 56.4742L20.0694 58.7107C20.2327 59.3943 20.3193 60.1074 20.3193 60.8403C20.3193 65.891 16.21 69.9999 11.1596 69.9999C6.10914 69.9999 2 65.891 2 60.8403C2 55.7894 6.10914 51.6807 11.1596 51.6807C11.8926 51.6807 12.6057 51.7672 13.2893 51.9306ZM10.3226 61.2693C9.96792 61.0001 9.52554 60.8403 9.04582 60.8403C7.87844 60.8403 6.93207 61.7866 6.93207 62.954C6.93207 64.1215 7.87844 65.0678 9.04582 65.0678C10.2133 65.0678 11.1596 64.1215 11.1596 62.954C11.1596 62.4744 10.9998 62.032 10.7306 61.6773C10.5442 61.6042 10.3957 61.4557 10.3226 61.2693Z" fill="#F6B660"/></svg>