<svg width="400" height="150" viewBox="0 0 400 150" fill="none" xmlns="http://www.w3.org/2000/svg">
<path d="M30 47.1667H370V103.829H30V47.1667Z" fill="#004C8F"/>
<path d="M86.6689 47.1667H370V103.829H86.6689V47.1667Z" fill="#004C8F"/>
<path d="M104.687 88.9025V62.0926H113.507V71.1408H121.772V62.0926H130.606V88.9025H121.772V78.5006H113.507V88.9025H104.687Z" fill="white"/>
<path d="M144.563 68.7541H146.85C148.496 68.7541 149.7 68.925 150.47 69.267C151.04 69.5164 151.503 69.8869 151.909 70.4426C152.279 70.9912 152.578 71.6824 152.799 72.5516C152.999 73.4137 153.106 74.3255 153.106 75.2873C153.106 76.8547 152.892 78.1657 152.429 79.2273C151.98 80.2888 151.332 81.0511 150.498 81.5213C149.665 81.9987 148.425 82.2266 146.786 82.2266L144.563 82.241V68.7541ZM147.969 88.9025C150.049 88.9025 151.773 88.7315 153.184 88.3539C154.602 87.9906 155.756 87.506 156.639 86.9289C157.537 86.3376 158.349 85.5397 159.097 84.5494C159.838 83.5235 160.487 82.2339 160.993 80.6523C161.513 79.0777 161.762 77.3036 161.762 75.2945C161.762 72.3449 161.199 69.8513 160.059 67.7709C158.905 65.7333 157.338 64.2585 155.336 63.3893C153.341 62.5201 150.961 62.0926 148.197 62.0926H135.935V88.9025H147.969Z" fill="white"/>
<path d="M165.802 88.9025V62.0926H186.72V68.7043H174.508V73.0004H184.276V79.4338H174.508V88.9025H165.802Z" fill="white"/>
<path d="M216.258 72.345H207.93C207.773 71.0127 207.288 69.9584 206.483 69.2032C205.671 68.4623 204.652 68.0989 203.398 68.0989C201.838 68.0989 200.57 68.7044 199.594 69.9014C198.611 71.1126 198.119 73.0718 198.119 75.7649C198.119 77.6458 198.34 79.0564 198.746 80.0182C199.166 81.0085 199.758 81.721 200.491 82.1983C201.247 82.6757 202.166 82.8967 203.299 82.8967C204.652 82.8967 205.735 82.5546 206.526 81.7708C207.338 81.037 207.808 79.94 207.965 78.4723H216.444C216.258 80.1394 215.923 81.5358 215.439 82.6758C214.976 83.8086 214.149 84.9341 213.031 86.067C211.898 87.214 210.544 88.0975 208.984 88.7102C207.424 89.33 205.621 89.6223 203.555 89.6223C201.517 89.6223 199.615 89.3302 197.898 88.7317C196.16 88.119 194.692 87.2496 193.524 86.1596C192.334 85.0268 191.408 83.7586 190.745 82.3266C189.79 80.3103 189.341 78.0947 189.341 75.6225C189.341 73.5564 189.676 71.597 190.353 69.8016C191.03 68.0204 191.963 66.5028 193.153 65.2774C194.35 64.0591 195.654 63.1473 197.107 62.5346C198.945 61.7509 200.969 61.3733 203.213 61.3733C205.165 61.3733 206.975 61.6581 208.685 62.2352C210.387 62.8123 211.784 63.6531 212.874 64.7716C213.978 65.8902 214.826 67.1726 215.417 68.6331C215.845 69.6519 216.116 70.8845 216.258 72.345Z" fill="white"/>
<path d="M244.507 68.1273C245.754 68.1273 246.559 68.1842 246.958 68.2982C247.471 68.4478 247.899 68.7399 248.205 69.1246C248.518 69.5236 248.682 69.9868 248.682 70.5211C248.682 71.2051 248.412 71.7678 247.892 72.1953C247.336 72.6441 246.388 72.8508 245.028 72.8508H241.707V68.1273H244.507ZM246.723 88.9025C248.811 88.9025 250.278 88.8027 251.14 88.6174C251.988 88.4179 252.865 88.1046 253.755 87.6914C254.624 87.2354 255.294 86.808 255.736 86.3377C256.42 85.7036 256.925 84.934 257.296 84.0078C257.666 83.0745 257.852 82.0201 257.852 80.8873C257.852 79.27 257.453 77.9377 256.641 76.8547C255.828 75.7647 254.738 75.0451 253.363 74.6533C255.693 73.1856 256.854 71.2905 256.854 68.9822C256.854 66.5954 255.828 64.7714 253.798 63.5317C252.23 62.5771 249.787 62.0926 246.474 62.0926H233.172V88.9025H246.723ZM245.305 77.6742C247.051 77.6742 248.184 77.8878 248.754 78.3367C249.281 78.7713 249.566 79.3697 249.566 80.1748C249.566 80.987 249.281 81.6282 248.704 82.0771C248.155 82.5544 247.008 82.7539 245.305 82.7539H241.707V77.6742H245.305Z" fill="white"/>
<path d="M277.223 79.89H271.616L274.381 70.1363L277.223 79.89ZM268.98 88.9025L269.999 85.383H278.777L279.803 88.9025H288.573L278.955 62.0926H269.999L260.374 88.9025H268.98Z" fill="white"/>
<path d="M292.278 88.9025V62.0926H300.492L309.761 76.4488V62.0926H318.211V88.9025H309.818L300.749 74.9027V88.9025H292.278Z" fill="white"/>
<path d="M324.089 88.9025V62.0926H332.632V70.9342L340.604 62.0926H350.963L341.138 72.1881L351.982 88.9025H341.423L334.976 78.2228L332.632 80.5381V88.9025H324.089Z" fill="white"/>
<path d="M30 47.1667H86.662V103.829H30V47.1667Z" fill="#ED232A"/>
<path d="M39.9173 57.0841H76.7516V93.9184H39.9173V57.0841Z" fill="white"/>
<path d="M55.4988 47.1667H61.1628V103.829H55.4988V47.1667Z" fill="white"/>
<path d="M30 72.6728H86.662V78.3368H30V72.6728Z" fill="white"/>
<path d="M49.8348 67.0017H66.834V84.0011H49.8348V67.0017Z" fill="#004C8F"/>
</svg>
