<svg width="36" height="36" viewBox="0 0 36 36" fill="none" xmlns="http://www.w3.org/2000/svg">
<g clip-path="url(#clip0_279_1049)">
<path d="M30.6 10.6263C30.3972 10.6583 30.1967 10.7046 30 10.7647C29.6405 7.76133 28.2219 4.99654 26.0114 2.99146C23.801 0.98638 20.9515 -0.120483 18 -0.120483C15.0485 -0.120483 12.199 0.98638 9.98856 2.99146C7.77812 4.99654 6.35946 7.76133 6 10.7647C5.79026 10.7496 5.57974 10.7496 5.37 10.7647C3.96611 10.7722 2.62028 11.34 1.61782 12.3476C0.615358 13.3552 0.0350783 14.7235 0 16.1624V21.6985C0 23.1667 0.568927 24.5748 1.58162 25.6131C2.59432 26.6513 3.96783 27.2345 5.4 27.2345C6.83217 27.2345 8.20568 26.6513 9.21838 25.6131C10.2311 24.5748 10.8 23.1667 10.8 21.6985V16.1624C10.8029 15.4001 10.6496 14.6456 10.35 13.9479V12.4101C10.35 10.3301 11.156 8.33523 12.5906 6.86441C14.0253 5.3936 15.9711 4.56731 18 4.56731C20.0289 4.56731 21.9747 5.3936 23.4094 6.86441C24.844 8.33523 25.65 10.3301 25.65 12.4101V13.9479C25.3504 14.6456 25.1971 15.4001 25.2 16.1624V21.6985C25.2002 22.4604 25.3534 23.2142 25.65 23.9129V25.5737C25.646 27.1141 25.0474 28.5903 23.9849 29.6796C22.9224 30.7688 21.4826 31.3826 19.98 31.3866H16.02C15.4233 31.3866 14.851 31.6296 14.429 32.0622C14.0071 32.4948 13.77 33.0815 13.77 33.6933C13.77 34.3051 14.0071 34.8918 14.429 35.3244C14.851 35.757 15.4233 36 16.02 36H19.98C22.4026 35.9959 24.744 35.104 26.5815 33.4853C28.419 31.8666 29.6314 29.6278 30 27.173H30.615C32.0472 27.173 33.4207 26.5898 34.4334 25.5516C35.4461 24.5133 36.015 23.1052 36.015 21.6369V16.1008C35.9992 14.6406 35.4212 13.2459 34.407 12.2205C33.3928 11.1951 32.0244 10.6221 30.6 10.6263V10.6263Z" fill="#04829E"/>
</g>
<defs>
<clipPath id="clip0_279_1049">
<rect width="36" height="36" fill="white"/>
</clipPath>
</defs>
</svg>
