<svg width="36" height="36" viewBox="0 0 36 36" fill="none" xmlns="http://www.w3.org/2000/svg">
<path d="M32.1429 6.42865H3.85714C2.83416 6.42865 1.85309 6.83503 1.12973 7.55838C0.406376 8.28174 0 9.26281 0 10.2858L0 25.7144C0 26.7373 0.406376 27.7184 1.12973 28.4418C1.85309 29.1651 2.83416 29.5715 3.85714 29.5715H32.1429C33.1658 29.5715 34.1469 29.1651 34.8703 28.4418C35.5936 27.7184 36 26.7373 36 25.7144V10.2858C36 9.26281 35.5936 8.28174 34.8703 7.55838C34.1469 6.83503 33.1658 6.42865 32.1429 6.42865V6.42865ZM7.07143 14.1429H5.78571C5.27423 14.1429 4.78369 13.9397 4.42201 13.5781C4.06033 13.2164 3.85714 12.7259 3.85714 12.2144C3.85714 11.7029 4.06033 11.2123 4.42201 10.8507C4.78369 10.489 5.27423 10.2858 5.78571 10.2858H7.07143C7.58292 10.2858 8.07346 10.489 8.43513 10.8507C8.79681 11.2123 9 11.7029 9 12.2144C9 12.7259 8.79681 13.2164 8.43513 13.5781C8.07346 13.9397 7.58292 14.1429 7.07143 14.1429ZM18 22.5001C17.11 22.5001 16.24 22.2362 15.4999 21.7417C14.7599 21.2472 14.1831 20.5444 13.8425 19.7222C13.5019 18.8999 13.4128 17.9951 13.5865 17.1222C13.7601 16.2493 14.1887 15.4474 14.818 14.8181C15.4474 14.1888 16.2492 13.7602 17.1221 13.5865C17.995 13.4129 18.8998 13.502 19.7221 13.8426C20.5443 14.1832 21.2471 14.76 21.7416 15.5C22.2361 16.24 22.5 17.1101 22.5 18.0001C22.4986 19.1931 22.0241 20.3369 21.1805 21.1806C20.3369 22.0242 19.1931 22.4987 18 22.5001V22.5001ZM30.2143 25.7144H28.9286C28.4171 25.7144 27.9265 25.5112 27.5649 25.1495C27.2032 24.7878 27 24.2973 27 23.7858C27 23.2743 27.2032 22.7838 27.5649 22.4221C27.9265 22.0604 28.4171 21.8572 28.9286 21.8572H30.2143C30.7258 21.8572 31.2163 22.0604 31.578 22.4221C31.9397 22.7838 32.1429 23.2743 32.1429 23.7858C32.1429 24.2973 31.9397 24.7878 31.578 25.1495C31.2163 25.5112 30.7258 25.7144 30.2143 25.7144Z" fill="#04829E"/>
</svg>
