<svg width="37" height="36" viewBox="0 0 37 36" fill="none" xmlns="http://www.w3.org/2000/svg">
<g clip-path="url(#clip0_10_113)">
<path fill-rule="evenodd" clip-rule="evenodd" d="M20.8099 0.735323L35.3899 11.6749C35.8538 12.0282 36.1954 12.518 36.3668 13.0755C36.5381 13.633 36.5306 14.2302 36.3452 14.7832C36.1599 15.3362 35.806 15.8173 35.3333 16.1587C34.8606 16.5002 34.2929 16.6849 33.7099 16.687H3.28986C2.85864 16.6893 2.43294 16.59 2.04724 16.3971C1.66154 16.2042 1.3267 15.923 1.06986 15.5765C0.848089 15.2853 0.686078 14.9531 0.593155 14.599C0.500232 14.2449 0.478232 13.8759 0.528421 13.5133C0.578611 13.1507 0.699999 12.8015 0.885598 12.486C1.0712 12.1705 1.31734 11.8948 1.60986 11.6749L16.1899 0.735323C16.8631 0.251631 17.671 -0.00854492 18.4999 -0.00854492C19.3287 -0.00854492 20.1366 0.251631 20.8099 0.735323ZM35.7444 31.6088C36.2246 32.0892 36.4961 32.7396 36.5001 33.4189C36.5001 34.1009 36.2303 34.7551 35.7497 35.2388C35.2691 35.7224 34.6167 35.9961 33.9351 36H3.06506C2.41672 35.9505 1.811 35.6578 1.36908 35.1806C0.927161 34.7035 0.681641 34.0769 0.681641 33.4264C0.681641 32.7759 0.927161 32.1494 1.36908 31.6723C1.811 31.1951 2.41672 30.9024 3.06506 30.8529H3.71006C3.88113 30.8529 4.04518 30.7849 4.16614 30.6639C4.28711 30.5429 4.35506 30.3787 4.35506 30.2076V21.8491C4.35896 21.5081 4.49612 21.1821 4.7372 20.9409C4.97828 20.6997 5.30414 20.5625 5.64506 20.5586H9.50006C9.83961 20.5586 10.1655 20.6925 10.407 20.9313C10.6485 21.17 10.7861 21.4945 10.7901 21.8341V30.2076C10.7901 30.3787 10.858 30.5429 10.979 30.6639C11.0999 30.7849 11.264 30.8529 11.4351 30.8529H14.6601C14.8299 30.8451 14.9901 30.7722 15.1075 30.6492C15.2248 30.5262 15.2902 30.3626 15.2901 30.1926V21.8341C15.29 21.4944 15.4239 21.1684 15.6626 20.9268C15.9013 20.6852 16.2255 20.5475 16.5651 20.5436H20.4351C20.7746 20.5475 21.0989 20.6852 21.3375 20.9268C21.5762 21.1684 21.7101 21.4944 21.7101 21.8341V30.2076C21.7101 30.3787 21.778 30.5429 21.899 30.6639C22.0199 30.7849 22.184 30.8529 22.3551 30.8529H25.5651C25.7361 30.8529 25.9002 30.7849 26.0211 30.6639C26.1421 30.5429 26.2101 30.3787 26.2101 30.2076V21.8491C26.214 21.5081 26.3511 21.1821 26.5922 20.9409C26.8333 20.6997 27.1591 20.5625 27.5001 20.5586H31.3551C31.6946 20.5586 32.0205 20.6925 32.262 20.9313C32.5035 21.17 32.6411 21.4945 32.6451 21.8341V30.2076C32.6451 30.3787 32.713 30.5429 32.834 30.6639C32.9549 30.7849 33.119 30.8529 33.2901 30.8529H33.9351C34.6141 30.8568 35.2643 31.1284 35.7444 31.6088Z" fill="#04829E"/>
</g>
<defs>
<clipPath id="clip0_10_113">
<rect width="36" height="36" fill="white" transform="translate(0.5)"/>
</clipPath>
</defs>
</svg>
