<svg width="36" height="36" viewBox="0 0 36 36" fill="none" xmlns="http://www.w3.org/2000/svg">
<g clip-path="url(#clip0_279_1067)">
<path d="M29.0376 14.37V11.565C28.9346 8.56791 27.7259 5.72956 25.6659 3.64741C23.6058 1.56526 20.8551 0.401733 17.9928 0.401733C15.1305 0.401733 12.3799 1.56526 10.3198 3.64741C8.25978 5.72956 7.05104 8.56791 6.94804 11.565V14.37C6.2323 14.6363 5.61276 15.1282 5.17445 15.7781C4.73614 16.4281 4.50054 17.2042 4.5 18V32.145C4.5 33.1674 4.88763 34.148 5.57762 34.8709C6.2676 35.5939 7.20343 36 8.17921 36H27.8208C28.7966 36 29.7324 35.5939 30.4224 34.8709C31.1124 34.148 31.5 33.1674 31.5 32.145V18C31.5005 17.2019 31.2637 16.4234 30.8223 15.7728C30.381 15.1222 29.7572 14.6319 29.0376 14.37V14.37ZM18 28.29C17.3906 28.293 16.7941 28.1064 16.2861 27.7538C15.7781 27.4013 15.3813 26.8986 15.1462 26.3096C14.911 25.7206 14.848 25.0717 14.9651 24.4451C15.0823 23.8185 15.3743 23.2425 15.8042 22.79C16.2341 22.3374 16.7825 22.0288 17.3799 21.9031C17.9774 21.7775 18.597 21.8405 19.1602 22.0841C19.7235 22.3278 20.205 22.7411 20.5439 23.2718C20.8827 23.8024 21.0636 24.4265 21.0636 25.065C21.0655 25.4878 20.9877 25.9069 20.8345 26.2981C20.6814 26.6892 20.4561 27.0449 20.1714 27.3445C19.8867 27.6442 19.5483 27.882 19.1757 28.0443C18.8031 28.2065 18.4035 28.29 18 28.29V28.29ZM24.1273 14.145H11.8584V11.565C11.9346 9.91406 12.6141 8.35709 13.7562 7.21687C14.8983 6.07665 16.4153 5.44062 17.9928 5.44062C19.5704 5.44062 21.0874 6.07665 22.2295 7.21687C23.3716 8.35709 24.0511 9.91406 24.1273 11.565V14.145Z" fill="#04829E"/>
</g>
<defs>
<clipPath id="clip0_279_1067">
<rect width="36" height="36" fill="white"/>
</clipPath>
</defs>
</svg>
