<svg width="400" height="150" viewBox="0 0 400 150" fill="none" xmlns="http://www.w3.org/2000/svg">
<path d="M222.171 76.1499C216.985 71.8509 210.272 69.0753 204.352 66.6254C196.188 63.2492 189.135 60.3362 189.135 54.9334C189.135 52.574 190.239 50.4064 192.247 48.8431C194.364 47.193 197.321 46.2846 200.567 46.2846C210.775 46.2846 218.917 53.504 218.99 53.5691L220.98 55.3857L230.027 38.4175L228.992 37.3247C228.597 36.9051 219.069 27.0692 200.69 27.0692C191.871 27.0692 183.761 29.8881 177.845 35.005C171.841 40.1978 168.527 47.3666 168.527 55.1866C168.527 62.8113 171.487 68.9777 177.563 74.0331C182.672 78.2778 189.038 81.0207 195.197 83.6769C203.596 87.2957 210.858 90.4258 210.858 95.995C210.858 100.236 207.985 104.771 199.934 104.771C188.386 104.771 179.119 95.977 179.028 95.8866L177.291 94.2002L166.044 109.786L167.166 111.042C167.293 111.172 170.198 114.382 175.659 117.577C180.667 120.501 188.904 123.99 199.677 123.99C209.103 123.99 217.137 121.098 222.912 115.634C228.344 110.488 231.333 103.381 231.333 95.6187C231.333 87.6322 228.337 81.2631 222.171 76.1499Z" fill="#292075"/>
<path d="M317.249 122.589H338.325V28.4696H317.249V122.589Z" fill="#292075"/>
<path d="M276.053 104.962H260.012V46.0893H274.157C280.497 46.0893 284.134 49.6357 284.134 55.8165C284.134 62.0624 280.863 65.2251 274.407 65.2251H269.536V82.548H276.053C279.618 82.548 282.589 83.659 284.641 85.7723C286.797 87.987 287.673 90.1798 287.673 93.339C287.673 100.511 283.222 104.962 276.053 104.962ZM304.037 80.2898C301.953 77.0112 299.094 74.4057 295.692 72.6616C301.182 68.2612 304.287 61.505 304.287 53.7899C304.287 45.9879 301.316 39.4815 295.692 34.9617C290.394 30.7096 283.038 28.4589 274.407 28.4589H240.116V122.578H274.791C283.989 122.578 291.947 120.255 297.798 115.851C304.442 110.857 307.949 103.424 307.949 94.3486C307.949 89.1774 306.599 84.3139 304.037 80.2898Z" fill="#292075"/>
<path d="M103.014 26.7797C76.1418 26.7797 54.357 48.615 54.357 75.5492C54.357 100.801 73.5038 121.569 98.0351 124.066V88.6382C92.7626 86.6262 89.0064 81.5201 89.0064 75.5492C89.0064 67.8232 95.2885 61.5375 103.014 61.5375C110.737 61.5375 117.026 67.8232 117.026 75.5492C117.026 81.5201 113.263 86.6262 107.99 88.6382V124.066C132.525 121.569 151.672 100.801 151.672 75.5492C151.672 48.615 129.887 26.7797 103.014 26.7797Z" fill="#00B5EF"/>
</svg>
