<svg width="135" height="32" viewBox="0 0 135 32" fill="none" xmlns="http://www.w3.org/2000/svg"><g clip-path="url(#clip0_184_5455)"><path fill-rule="evenodd" clip-rule="evenodd" d="M25.0967 17.726L14.5906 10.113C14.0608 9.72975 13.3442 9.72975 12.8153 10.113L8.13269 13.5056C7.85919 13.7032 7.52522 13.7835 7.19184 13.7308C6.85827 13.6784 6.56567 13.4994 6.36696 13.2267C6.16824 12.9543 6.08808 12.621 6.14119 12.2887C6.1941 11.9562 6.37312 11.664 6.64663 11.466L9.96666 9.0602H9.96745L12.8576 6.96586C14.4724 5.7952 16.6984 5.94041 18.1425 7.31264C18.4616 7.61656 18.959 7.63521 19.3159 7.37612L25.0967 3.18764V17.726ZM24.9644 20.7018L24.9493 20.8024C24.9139 21.0224 24.7671 21.3398 24.6057 21.4927C24.1807 21.8971 23.5577 21.929 23.1046 21.6003L17.9764 17.8808L17.939 17.8542C17.6281 17.6284 17.1203 17.6312 16.8375 17.8913C16.4259 18.27 16.4798 18.904 16.9087 19.2145L16.9715 19.2599L21.6746 22.668C21.9361 22.858 22.1293 23.1389 22.1736 23.4595C22.2355 23.9019 22.0563 24.3179 21.705 24.5729L21.5972 24.6512C21.188 24.9474 20.6341 24.9474 20.2247 24.6512L14.3922 20.4242C14.0813 20.1995 13.5725 20.2017 13.2903 20.4615C12.8781 20.8411 12.9326 21.4741 13.3611 21.7846L18.127 25.238C18.3894 25.4283 18.5817 25.7094 18.6259 26.0298C18.6887 26.473 18.5097 26.888 18.1578 27.1435L18.0494 27.2217C17.6405 27.5181 17.0863 27.5181 16.6775 27.2217L15.6149 26.4514L10.8446 22.9949C10.5338 22.7695 10.0255 22.7727 9.74308 23.0326C9.33054 23.4111 9.38544 24.0448 9.81389 24.3552L14.5798 27.8091C14.8418 27.9988 15.0341 28.2801 15.0793 28.5999C15.1411 29.0432 14.9621 29.4591 14.61 29.714L14.5054 29.7902C14.1388 30.0554 13.6604 30.0832 13.2692 29.8741L1.8634 21.6088V3.18764L6.81988 6.77978L8.38213 7.91116L5.55122 9.96305C4.87552 10.4519 4.43195 11.175 4.30146 11.9981C4.16998 12.8206 4.36849 13.6447 4.86 14.3192C5.35072 14.9929 6.07515 15.4355 6.90004 15.5666C7.06573 15.5926 7.23142 15.6057 7.39592 15.6057C8.05114 15.6057 8.68765 15.401 9.2281 15.0093L13.1872 12.1407C13.4947 11.9177 13.9109 11.9177 14.218 12.1407L24.6057 19.6712C24.8886 19.9328 25.0248 20.3149 24.9644 20.7018ZM23.7616 1.85787L19.0535 5.26948C18.9097 5.37363 18.714 5.38355 18.5648 5.28634C16.6495 4.04168 14.1571 3.98673 12.1744 5.18993C12.1141 5.21671 12.0558 5.24865 12.0001 5.28872L9.96626 6.76292L3.1983 1.85787H23.7616ZM26.6868 0.271785C26.5127 0.097207 26.2754 0 26.028 0H0.931503C0.416919 0 0 0.415813 0 0.928438V22.0821C0 22.3795 0.143018 22.6586 0.383502 22.8336L12.4558 31.5842H12.4564C13.0665 32.0266 13.8934 32.0266 14.5036 31.5842L26.5756 22.8366C26.817 22.661 26.9601 22.3821 26.9601 22.0849V0.929232C26.9601 0.682839 26.862 0.446561 26.6868 0.271785Z" fill="#212E61"/><path fill-rule="evenodd" clip-rule="evenodd" d="M98.8116 8.52419C98.9811 8.52419 99.1181 8.66352 99.1181 8.8337V21.8935C99.1181 22.0643 98.9811 22.2025 98.8116 22.2025H94.6671C94.4978 22.2025 94.3604 22.0643 94.3604 21.8935V8.8337C94.3604 8.66352 94.4978 8.52419 94.6671 8.52419H98.8116ZM117.644 4.55948C117.813 4.55948 117.95 4.69742 117.95 4.86791V21.8938C117.95 22.0637 117.813 22.2025 117.644 22.2025H113.499C113.33 22.2025 113.193 22.0637 113.193 21.8938V4.86791C113.193 4.69742 113.33 4.55948 113.499 4.55948H117.644ZM96.8383 1.78418C98.3163 1.78418 99.5145 2.98229 99.5145 4.45996C99.5145 5.93802 98.3163 7.13654 96.8383 7.13654C95.3604 7.13654 94.1622 5.93802 94.1622 4.45996C94.1622 2.98229 95.3604 1.78418 96.8383 1.78418ZM134.402 10.2292C134.402 10.2335 134.404 10.2407 134.404 10.2448V22.4535C134.404 25.4112 133.134 27.455 130.362 28.4008C128.607 29.0002 126.938 29.0492 125.364 28.8041C125.202 28.7783 125.089 28.63 125.103 28.4684L125.417 24.8673C125.433 24.6811 125.598 24.5628 125.784 24.5933C126.282 24.6764 127.204 24.6847 127.215 24.6847C127.605 24.6962 127.969 24.599 128.293 24.4347C128.309 24.4271 128.325 24.4188 128.341 24.4109C129.014 24.048 129.548 23.3574 129.573 22.5431V21.3287C129.573 20.7221 129.15 20.85 128.865 21.0715C127.968 21.7708 126.956 22.4477 125.492 22.4477C123.868 22.4477 122.634 21.7764 121.803 20.6791C121.326 20.0508 120.924 18.7235 120.924 15.9262V8.83232C120.924 8.6616 121.062 8.52419 121.234 8.52419H125.435C125.607 8.52419 125.746 8.6616 125.746 8.83232V15.9262C125.746 17.4123 126.482 18.1921 127.624 18.1921C128.767 18.1921 129.579 17.4123 129.579 15.9262V8.83232C129.579 8.6616 129.718 8.52419 129.89 8.52419H134.091C134.263 8.52419 134.402 8.6616 134.402 8.83232V10.2292ZM110.303 8.53884C110.476 8.53884 110.616 8.67598 110.616 8.84569V12.4043C110.616 12.5742 110.476 12.7112 110.303 12.7112H108.398C108.226 12.7112 108.086 12.8481 108.086 13.0178V16.9968C108.086 18.8174 109.557 18.5044 110.256 18.4018C110.446 18.3738 110.616 18.5157 110.616 18.7043V21.5839C110.616 21.7183 110.524 21.818 110.398 21.8782C109.82 22.1519 108.428 22.4007 106.808 22.4007C104.593 22.4007 103.237 20.8309 103.237 18.8949V13.0178C103.237 12.8481 103.097 12.7112 102.924 12.7112H101.611C101.439 12.7112 101.299 12.5742 101.299 12.4043V8.84569C101.299 8.67598 101.439 8.53884 101.611 8.53884H102.924C103.097 8.53884 103.237 8.4011 103.237 8.23199V4.86613C103.237 4.69702 103.377 4.55948 103.55 4.55948H107.773C107.946 4.55948 108.086 4.69702 108.086 4.86613V8.23239C108.086 8.4011 108.226 8.53884 108.398 8.53884H110.303ZM44.643 13.0282C46.3171 13.0282 47.2807 12.2217 47.2807 10.9363V10.8859C47.2807 9.50001 46.2667 8.79422 44.6173 8.79422H41.7068C41.5352 8.79422 41.3964 8.93216 41.3964 9.10233V12.7197C41.3964 12.89 41.5352 13.0282 41.7068 13.0282H44.643ZM36.4756 4.86799C36.4756 4.69761 36.6141 4.55948 36.7857 4.55948H44.8713C47.5857 4.55948 49.4624 5.26547 50.6549 6.47522C51.695 7.48316 52.2272 8.84438 52.2272 10.5838V10.6337C52.2272 13.1922 50.9254 14.9342 48.9084 15.9023C48.7358 15.9845 48.6725 16.1947 48.7804 16.3511L52.478 21.7192C52.6186 21.9242 52.4719 22.2025 52.2219 22.2025H47.3526C47.2126 22.2025 47.0819 22.1328 47.0044 22.017L43.7105 17.0951C43.6121 16.9474 43.4453 16.8593 43.267 16.8593H41.7068C41.5352 16.8593 41.3964 16.997 41.3964 17.1674V21.8939C41.3964 22.0643 41.2569 22.2025 41.0857 22.2025H36.7857C36.6141 22.2025 36.4756 22.0643 36.4756 21.8939V4.86799ZM63.0469 13.764V13.7636C63.0469 12.4252 62.0672 11.3696 60.6093 11.3696C59.257 11.3696 58.2105 12.4252 58.2105 13.7636V13.764C58.2105 13.934 58.3395 14.0715 58.4984 14.0715H62.759C62.9179 14.0715 63.0469 13.934 63.0469 13.764ZM60.4019 8.12772C64.9764 8.12772 67.4004 11.4725 67.4004 15.4139V16.2959C67.4004 16.4667 67.2622 16.606 67.092 16.606H58.3616L58.3602 16.6068H58.3513C58.1823 16.6068 58.0455 16.7449 58.0455 16.9149C58.0455 18.2528 59.272 19.0659 60.8248 19.0659L60.8261 19.0645C60.8283 19.0645 60.8323 19.0659 60.8323 19.0659C61.664 19.0659 62.2579 18.7451 62.7294 18.2522C62.832 18.1462 62.9684 18.0805 63.1153 18.0805H66.7653C66.9826 18.0805 67.1393 18.3037 67.0563 18.5049C66.0899 20.8387 63.9741 22.4007 60.4019 22.4007C56.4109 22.4007 53.5239 19.3551 53.5239 15.4139C53.5239 11.4725 56.1574 8.12772 60.4019 8.12772ZM82.4983 10.0939C83.6454 8.8804 84.9938 8.12772 86.8803 8.12772C89.8055 8.12772 91.5851 9.93463 91.5851 13.0965V21.6971C91.5851 21.8671 91.4456 22.0042 91.274 22.0042H87.0648C86.8924 22.0042 86.7537 21.8671 86.7537 21.6971V14.6272C86.7537 13.1461 86.0156 12.3685 84.871 12.3685C83.727 12.3685 82.8874 13.1461 82.8874 14.6272V21.6971C82.8874 21.8671 82.7477 22.0042 82.5763 22.0042H78.367C78.1945 22.0042 78.0554 21.8671 78.0554 21.6971V14.6272C78.0554 13.1461 77.3178 12.3685 76.1733 12.3685C75.0287 12.3685 74.2153 13.1461 74.2153 14.6272V21.6971C74.2153 21.8671 74.0758 22.0042 73.9038 22.0042H69.6942C69.522 22.0042 69.3827 21.8671 69.3827 21.6971V8.73635C69.3827 8.56621 69.522 8.42907 69.6942 8.42907H73.914C74.0804 8.42907 74.2153 8.56186 74.2153 8.72568V9.69237C74.2153 9.91685 74.5001 10.0131 74.6422 9.8386C75.4598 8.8393 76.7112 8.18226 78.1242 8.1295C78.1877 8.12812 78.2492 8.12772 78.3095 8.12772C80.0165 8.12772 81.3478 8.82606 82.1184 10.0589C82.2009 10.1923 82.3894 10.2091 82.4983 10.0939Z" fill="#212E61"/></g><defs><clipPath id="clip0_184_5455"><rect width="134.328" height="32" fill="white"/></clipPath></defs></svg>