<svg width="400" height="150" viewBox="0 0 400 150" fill="none" xmlns="http://www.w3.org/2000/svg">
<g clip-path="url(#clip0_1476_6591)">
<mask id="mask0_1476_6591" style="mask-type:luminance" maskUnits="userSpaceOnUse" x="7" y="-22" width="386" height="194">
<path d="M7.37866 -21.024H392.64V171.607H7.37866V-21.024Z" fill="white"/>
</mask>
<g mask="url(#mask0_1476_6591)">
<path d="M37.6793 117.146H40.1496L37.8541 126.734C37.5134 128.157 37.5776 129.228 38.0485 129.942C38.5176 130.657 39.3907 131.015 40.6669 131.015C41.935 131.015 42.9749 130.657 43.7873 129.942C44.6006 129.228 45.1776 128.157 45.5183 126.734L47.8129 117.146H50.3153L47.9636 126.971C47.4526 129.106 46.5421 130.704 45.2383 131.764C43.9336 132.825 42.2231 133.355 40.1068 133.355C37.9888 133.355 36.536 132.826 35.745 131.769C34.9531 130.713 34.8148 129.113 35.3276 126.971L37.6793 117.146Z" fill="#696A6A"/>
<path d="M49.9834 132.935L53.9127 116.521L61.3789 126.173C61.5787 126.445 61.7802 126.737 61.9791 127.046C62.178 127.356 62.3813 127.703 62.59 128.092L65.211 117.146H67.5235L63.5969 133.547L55.9737 123.723C55.7695 123.458 55.5795 123.178 55.402 122.883C55.2228 122.588 55.0614 122.279 54.9133 121.956L52.2852 132.935H49.9834Z" fill="#696A6A"/>
<path d="M67.3188 132.935L71.0983 117.146H73.599L69.8204 132.935H67.3188Z" fill="#696A6A"/>
<path d="M73.416 132.935L77.1955 117.146H85.7836L85.2619 119.324H79.1753L78.2327 123.26H84.3193L83.7806 125.514H77.6931L75.9175 132.935H73.416Z" fill="#696A6A"/>
<path d="M84.7596 132.935L88.5391 117.146H91.0398L87.2612 132.935H84.7596Z" fill="#696A6A"/>
<path d="M90.8569 132.935L94.6364 117.146H103.224L102.703 119.324H96.6162L95.6682 123.282H101.755L101.216 125.536H95.1295L93.9077 130.638H99.9943L99.445 132.935H90.8569Z" fill="#696A6A"/>
<path d="M105.372 130.616H107.475C108.631 130.616 109.517 130.536 110.134 130.378C110.75 130.221 111.315 129.954 111.833 129.58C112.537 129.071 113.125 128.436 113.597 127.677C114.069 126.919 114.427 126.035 114.668 125.028C114.907 124.022 114.973 123.14 114.865 122.383C114.755 121.623 114.471 120.989 114.012 120.478C113.667 120.106 113.211 119.838 112.642 119.679C112.072 119.522 111.145 119.443 109.855 119.443H108.951H108.047L105.372 130.616ZM102.316 132.935L106.095 117.146H109.469C111.663 117.146 113.179 117.258 114.019 117.485C114.857 117.712 115.55 118.092 116.095 118.623C116.819 119.321 117.279 120.216 117.477 121.308C117.674 122.401 117.604 123.649 117.269 125.051C116.934 126.453 116.407 127.695 115.688 128.777C114.971 129.859 114.082 130.752 113.024 131.457C112.224 131.989 111.366 132.368 110.455 132.595C109.541 132.821 108.178 132.935 106.362 132.935H105.689H102.316Z" fill="#696A6A"/>
<path d="M129.449 123.747H130.091C131.478 123.747 132.44 123.591 132.977 123.282C133.515 122.974 133.876 122.427 134.064 121.643C134.265 120.802 134.161 120.208 133.749 119.864C133.337 119.519 132.47 119.345 131.146 119.345H130.503L129.449 123.747ZM128.788 125.848L127.092 132.935H124.749L128.529 117.147H132.313C133.434 117.147 134.245 117.209 134.744 117.335C135.242 117.46 135.653 117.667 135.977 117.955C136.372 118.322 136.632 118.816 136.757 119.438C136.881 120.06 136.854 120.745 136.676 121.491C136.495 122.24 136.194 122.93 135.77 123.563C135.345 124.195 134.847 124.692 134.278 125.051C133.817 125.339 133.307 125.544 132.749 125.665C132.19 125.788 131.351 125.848 130.23 125.848H129.736H128.788Z" fill="#696A6A"/>
<path d="M139.764 126.734H144.053L143.337 123.131C143.303 122.902 143.271 122.638 143.243 122.339C143.217 122.04 143.199 121.708 143.188 121.341C143.022 121.686 142.855 122.008 142.688 122.307C142.522 122.605 142.361 122.88 142.202 123.131L139.764 126.734ZM145.197 132.935L144.424 128.869H138.326L135.566 132.935H132.94L144.32 116.521L147.835 132.935H145.197Z" fill="#696A6A"/>
<path d="M151.42 132.935L153.148 125.708L150.016 117.146H152.645L154.589 122.506C154.633 122.643 154.687 122.823 154.748 123.046C154.811 123.269 154.871 123.508 154.928 123.768C155.085 123.516 155.247 123.277 155.408 123.055C155.57 122.832 155.733 122.628 155.898 122.441L160.475 117.146H162.978L155.629 125.708L153.9 132.935H151.42Z" fill="#696A6A"/>
<path d="M175.289 125.137C175.29 125.015 175.325 124.678 175.395 124.124C175.448 123.664 175.49 123.282 175.521 122.98C175.372 123.34 175.196 123.7 174.994 124.059C174.792 124.418 174.56 124.785 174.295 125.159L168.255 133.572L166.284 124.987C166.2 124.634 166.136 124.292 166.093 123.962C166.05 123.631 166.021 123.304 166.007 122.98C165.921 123.311 165.812 123.657 165.679 124.021C165.547 124.384 165.388 124.764 165.201 125.159L161.689 132.935H159.389L166.965 116.476L169.121 126.442C169.152 126.6 169.198 126.863 169.253 127.23C169.308 127.596 169.373 128.049 169.449 128.588C169.704 128.135 170.072 127.561 170.555 126.863C170.683 126.676 170.781 126.532 170.847 126.432L177.667 116.476L177.449 132.935H175.125L175.289 125.137Z" fill="#696A6A"/>
<path d="M179.446 132.935L183.226 117.146H191.814L191.293 119.324H185.205L184.258 123.282H190.345L189.806 125.536H183.719L182.498 130.638H188.584L188.033 132.935H179.446Z" fill="#696A6A"/>
<path d="M190.905 132.935L194.834 116.521L202.3 126.173C202.5 126.445 202.702 126.737 202.901 127.046C203.099 127.356 203.303 127.703 203.511 128.092L206.132 117.146H208.446L204.518 133.547L196.895 123.723C196.691 123.458 196.501 123.178 196.323 122.883C196.144 122.588 195.983 122.279 195.835 121.956L193.207 132.935H190.905Z" fill="#696A6A"/>
<path d="M216.428 119.324L213.17 132.935H210.668L213.925 119.324H209.836L210.358 117.147H221.017L220.496 119.324H216.428Z" fill="#696A6A"/>
<path d="M219.024 129.774L221.248 128.826C221.27 129.53 221.488 130.068 221.903 130.438C222.319 130.809 222.919 130.993 223.706 130.993C224.448 130.993 225.09 130.781 225.629 130.357C226.168 129.933 226.524 129.365 226.694 128.653C226.916 127.725 226.362 126.898 225.038 126.173C224.853 126.065 224.71 125.986 224.612 125.935C223.118 125.087 222.171 124.319 221.771 123.632C221.373 122.946 221.291 122.107 221.528 121.115C221.836 119.828 222.512 118.786 223.554 117.987C224.597 117.189 225.808 116.79 227.189 116.79C228.324 116.79 229.221 117.014 229.876 117.464C230.533 117.914 230.907 118.559 231 119.4L228.798 120.435C228.607 119.94 228.356 119.577 228.044 119.346C227.731 119.115 227.335 119 226.859 119C226.187 119 225.609 119.181 225.126 119.539C224.647 119.899 224.332 120.381 224.186 120.986C223.96 121.934 224.617 122.818 226.159 123.638C226.278 123.702 226.371 123.754 226.437 123.789C227.787 124.507 228.664 125.211 229.066 125.898C229.47 126.585 229.549 127.442 229.302 128.47C228.944 129.966 228.201 131.154 227.072 132.034C225.943 132.914 224.597 133.355 223.035 133.355C221.723 133.355 220.724 133.046 220.035 132.428C219.345 131.809 219.008 130.926 219.024 129.774Z" fill="#696A6A"/>
<path d="M237.506 132.935L241.286 117.146H243.787L240.008 132.935H237.506Z" fill="#696A6A"/>
<path d="M243.603 132.935L247.533 116.521L254.999 126.173C255.199 126.445 255.4 126.737 255.599 127.046C255.798 127.356 256.001 127.703 256.21 128.092L258.831 117.146H261.143L257.217 133.547L249.594 123.723C249.389 123.458 249.199 123.178 249.021 122.883C248.843 122.588 248.68 122.279 248.532 121.956L245.905 132.935H243.603Z" fill="#696A6A"/>
<path d="M269.126 119.324L265.868 132.935H263.367L266.624 119.324H262.535L263.057 117.147H273.716L273.195 119.324H269.126Z" fill="#696A6A"/>
<path d="M271.85 132.935L275.629 117.146H284.217L283.696 119.324H277.61L276.662 123.282H282.748L282.209 125.536H276.122L274.901 130.638H280.988L280.438 132.935H271.85Z" fill="#696A6A"/>
<path d="M287.979 123.875H288.432C289.755 123.875 290.673 123.718 291.183 123.401C291.693 123.085 292.046 122.525 292.237 121.718C292.446 120.849 292.36 120.235 291.978 119.88C291.599 119.523 290.777 119.345 289.516 119.345H289.063L287.979 123.875ZM287.344 125.87L285.652 132.935H283.308L287.089 117.146H290.578C291.601 117.146 292.379 117.214 292.909 117.351C293.441 117.488 293.869 117.713 294.193 118.031C294.578 118.411 294.828 118.905 294.944 119.509C295.057 120.111 295.028 120.773 294.856 121.491C294.554 122.756 294.019 123.747 293.252 124.463C292.485 125.178 291.502 125.608 290.305 125.751L293.884 132.935H291.055L287.627 125.87H287.344Z" fill="#696A6A"/>
<path d="M295.367 132.935L299.146 117.146H307.734L307.213 119.324H301.126L300.183 123.26H306.271L305.731 125.514H299.645L297.868 132.935H295.367Z" fill="#696A6A"/>
<path d="M310.634 126.734H314.923L314.207 123.131C314.172 122.902 314.141 122.638 314.113 122.339C314.088 122.04 314.07 121.708 314.058 121.341C313.891 121.686 313.725 122.008 313.559 122.307C313.393 122.605 313.231 122.88 313.072 123.131L310.634 126.734ZM316.067 132.935L315.294 128.869H309.197L306.437 132.935H303.809L315.19 116.521L318.705 132.935H316.067Z" fill="#696A6A"/>
<path d="M334.989 120.985C334.43 120.367 333.793 119.903 333.078 119.594C332.365 119.286 331.573 119.13 330.703 119.13C329.022 119.13 327.521 119.684 326.202 120.791C324.881 121.898 324.01 123.332 323.589 125.095C323.181 126.799 323.358 128.204 324.12 129.31C324.882 130.418 326.045 130.973 327.606 130.973C328.518 130.973 329.425 130.807 330.327 130.476C331.23 130.145 332.14 129.646 333.056 128.976L332.361 131.878C331.57 132.374 330.749 132.745 329.899 132.988C329.048 133.232 328.161 133.355 327.236 133.355C326.059 133.355 325.017 133.158 324.114 132.762C323.209 132.366 322.47 131.785 321.899 131.015C321.33 130.26 320.965 129.371 320.809 128.345C320.65 127.322 320.71 126.23 320.986 125.072C321.264 123.915 321.726 122.828 322.373 121.81C323.019 120.793 323.817 119.899 324.764 119.13C325.715 118.354 326.731 117.767 327.814 117.366C328.897 116.969 330.015 116.768 331.164 116.768C332.069 116.768 332.898 116.903 333.653 117.174C334.409 117.442 335.106 117.85 335.747 118.398L334.989 120.985Z" fill="#696A6A"/>
<path d="M335.232 132.935L339.011 117.146H347.599L347.077 119.324H340.992L340.044 123.282H346.13L345.591 125.536H339.504L338.283 130.638H344.37L343.82 132.935H335.232Z" fill="#696A6A"/>
<path d="M289.603 103.388H272.406L296.323 17.0116H313.52L289.603 103.388Z" fill="#66686C"/>
<path d="M280.675 19.7423C279.483 18.0987 277.644 17.2693 275.146 17.2693H180.582L175.898 34.1869H193.105V34.1771H261.925L256.918 52.2558H188.097L188.103 52.2184H170.903L156.628 103.753H173.837L183.416 69.1636H260.777C263.193 69.1636 265.467 68.3396 267.606 66.6915C269.74 65.0417 271.144 63.0075 271.818 60.5782L281.397 25.9814C282.096 23.4709 281.854 21.3877 280.675 19.7423Z" fill="#66686C"/>
<path d="M146.607 97.9959C145.658 101.416 142.543 103.782 138.993 103.782H50.2663C47.8486 103.782 46.0516 102.958 44.87 101.312C43.6892 99.6636 43.4359 97.6249 44.111 95.1965L65.7606 17.2641H82.9734L63.6363 86.8697H132.489L151.826 17.2641H169.036L146.607 97.9959Z" fill="#66686C"/>
<path d="M343.221 17.1731L364.994 60.4731L319.224 103.761L343.221 17.1731Z" fill="#27803B"/>
<path d="M327.959 17.1731L349.715 60.4731L303.927 103.761L327.959 17.1731Z" fill="#E9661C"/>
</g>
</g>
<defs>
<clipPath id="clip0_1476_6591">
<rect width="330" height="116.584" fill="white" transform="translate(35 17)"/>
</clipPath>
</defs>
</svg>
