<svg xmlns="http://www.w3.org/2000/svg" width="24" height="25" fill="none"><path fill="#2C415A" fill-rule="evenodd" d="M3 3.827h18c.796 0 1.559.323 2.121.898.563.575.879 1.355.879 2.169v10.222c0 .813-.316 1.593-.879 2.168a2.967 2.967 0 0 1-2.121.898H10.38l-2.055 2.843a.999.999 0 0 1-.71.302.981.981 0 0 1-.71-.302L4.62 20.182H3a2.967 2.967 0 0 1-2.121-.898A3.101 3.101 0 0 1 0 17.116V6.894C0 6.08.316 5.3.879 4.725A2.967 2.967 0 0 1 3 3.827Zm7.5 8.25a2.25 2.25 0 1 1-4.5 0 2.25 2.25 0 0 1 4.5 0Zm7.5 0a2.25 2.25 0 1 1-4.5 0 2.25 2.25 0 0 1 4.5 0Z" clip-rule="evenodd"/></svg>